<svg t="1731034869513" class="icon" viewBox="0 0 1174 1024" version="1.1" xmlns="http://www.w3.org/2000/svg" p-id="5231" width="200" height="200"><path d="M1095.005365 477.485176c3.391247 48.971294-0.4096 98.141365-11.330259 146.654871a511.686776 511.686776 0 0 1-78.817882 179.579482c-39.080659 56.295906-88.563953 103.568565-146.931953 140.57713-58.361976 37.008565-122.289694 61.367718-189.915859 72.565459a510.445929 510.445929 0 0 1-196.234541-5.662118 512.144565 512.144565 0 0 1-132.373083-49.489318l-5.156141-2.831058 35.038871-22.154542c144.745412 72.643765 323.017788 70.077741 469.600376-22.7328 145.118871-91.7504 223.683765-249.434353 221.184-409.563858l-0.096376-4.854965 35.032847-22.088283zM911.938259 50.489224c24.033882-15.082918 55.693553-8.414871 71.529412 14.914258l0.897505 1.361318 177.64593 280.106165c15.227482 23.937506 8.426918 55.555012-14.974494 71.396894l-1.367341 0.903529-886.615342 560.82673c-23.973647 15.082918-55.627294 8.414871-71.463153-14.854024l-0.897505-1.355294-177.64593-280.142306c-15.058824-23.901365-8.384753-55.555012 14.938353-71.39087l1.367341-0.897506L911.938259 50.489224zM630.488847 853.594353l-5.186259 37.869929 28.268424 25.780706-37.66513 6.74033-15.829835 34.900329-18.142871-33.761882-38.11087-4.276706 26.605929-27.690165-7.673976-37.382023 34.42447 16.655058 33.310118-18.835576z m323.704471-767.674729a16.649035 16.649035 0 0 0-22.058165-5.776565l-0.951718 0.554165L44.531953 641.566118a16.709271 16.709271 0 0 0-5.770541 22.130447l0.554164 0.951717L216.967529 944.790588a16.673129 16.673129 0 0 0 22.094306 5.740424l0.957741-0.560188L1126.628894 389.059765c7.396894-4.836894 9.860518-14.516706 5.824753-22.076236l-0.542118-0.933647-177.712188-280.136282z m-160.087342 700.259388l14.444424 35.418353 37.279624 8.155859-29.027389 24.702494 3.843012 38.080753-32.587294-20.245083-35.038871 15.299765 9.053365-37.104941-25.437365-28.539483 38.080753-2.770823 19.395765-32.996894z m87.901365-173.947483c-22.871341 68.138165-68.035765 126.0544-129.650447 164.996518-60.711153 38.309647-130.825035 54.573176-201.0112 47.146165l-3.830965-0.421647 54.079247-34.213647a276.329412 276.329412 0 0 0 131.517742-42.574306 277.190776 277.190776 0 0 0 92.882823-97.15953l1.969694-3.493647 54.043106-34.279906zM287.623529 591.0528c1.283012-0.807153 3.903247-1.138447 7.854683-0.993882l14.848 0.722823 1.198682 0.1024c3.445459 0.361412 5.644047 1.307106 6.601788 2.843106 0.993882 1.584188-0.331294 4.746541-3.975529 9.481035l-0.813177 1.036047 27.961224 44.754824c1.855247 2.963576 3.367153 5.282635 4.529694 6.9632l0.909553 1.283012 3.397271 4.981459 0.319247 0.602352c0.530071 1.240847 0.481882 2.710588-0.162636 4.415248-0.686682 1.807059-2.433506 4.583906-5.252517 8.354635l-0.879436 1.156517c-3.337035 4.361035-5.451294 6.812612-6.336752 7.366777-0.783059 0.493929-1.692612 0.012047-2.722636-1.439624l-0.391529-0.590305-8.047435-12.872283-95.00913 59.37393 41.237082 65.993788 0.69873 1.066165c2.349176 3.397271 4.788706 5.204329 7.336659 5.421176 2.800941 0.240941 10.384565-3.078024 22.756894-9.956894a800.484894 800.484894 0 0 0 35.207529-20.720941c8.878682-5.547671 17.829647-11.324235 26.858918-17.329694l6.77647-4.541742c11.324235-7.643859 17.781459-12.3904 19.377695-14.239623 1.590212-1.8432 2.529882-4.132141 2.806964-6.866824 0.283106-2.734682-0.162635-6.2464-1.325176-10.541176-1.036047-3.806871-2.728659-8.487153-5.065788-14.034824l-0.909553-2.108235c-2.168471-4.987482-5.041694-11.239906-8.625694-18.757271l-3.415342-7.107764 5.517553-3.445459 1.41553 2.409412c7.011388 11.854306 13.263812 20.823341 18.745223 26.895059 5.842824 6.481318 11.498918 9.535247 16.944188 9.155764 3.132235-0.439718 5.12 0.018071 5.975342 1.385412 0.849318 1.361318 1.066165 5.487435 0.638494 12.384376-0.421647 6.896941-2.409412 12.444612-5.9392 16.636989-3.385224 4.023718-12.294024 10.758024-26.732424 20.202917l-12.233788 7.914918a3527.5776 3527.5776 0 0 1-22.546071 14.366118l-20.720941 13.02287-6.728282 4.174306c-16.5888 10.209882-28.370824 16.823718-35.358118 19.853553-7.902871 3.421365-14.781741 5.065788-20.636612 4.939294-5.535624-0.120471-10.962824-4.192376-16.275576-12.221741l-0.939671-1.457694-55.055058-88.094118-2.993695-4.704376a344.666353 344.666353 0 0 0-10.36047-15.317836l6.107859-2.276894c7.710118-2.831059 13.691482-4.860988 17.93807-6.071717l2.126306-0.572236c3.975529-0.999906 6.210259-1.084235 6.722259-0.271058 0.662588 1.066165-0.379482 3.830965-3.132235 8.31247l-1.385412 2.186541 10.595388 16.956236 95.00913-59.367906-30.768189-49.242353-108.092235 67.541835-1.325176 0.861365c-2.547953 1.716706-4.469459 3.415341-5.764518 5.089882l-0.602353 0.843294-8.9088-6.083764 1.427576-0.512c2.415435-0.933647 4.999529-2.210635 7.758306-3.830965l1.668518-1.017977 108.501835-67.794823-0.481882-10.782118 0.024094-0.963764c0.138541-2.487718 0.843294-4.126118 2.120282-4.921224z m614.333742 54.994824l30.304376 23.292988 36.4544-11.607341-12.950588 35.84 22.455717 31.021176-38.249411-1.072188-22.606306 30.858541-10.745977-36.6592-36.448376-12.022965 31.647623-21.461835 0.138542-38.189176zM449.295059 477.244235l3.535812-1.240847c15.396141-5.318776 23.726682-6.9632 24.997647-4.939294 0.704753 1.144471-0.072282 3.945412-2.343153 8.414871l-0.548141 1.060141 18.769317 30.039341 4.288753-2.680471 0.283106-14.095058 0.048188-0.831247c0.156612-1.837176 0.650541-3.017788 1.487812-3.541836 0.951718-0.596329 2.493741-0.704753 4.620047-0.331294l3.156329 0.6144c1.192659 0.240941 2.529882 0.536094 3.9936 0.867388l1.523953 0.349365c3.650259 0.843294 6.908988 1.7408 9.776189 2.692518 2.873224 0.951718 4.577882 1.873318 5.13807 2.758776 0.487906 0.783059-0.150588 1.795012-1.927529 3.029836l-0.722824 0.469835-27.581741 17.233317 17.365835 27.792565 18.751247-30.467012 4.415248 2.066071-15.763577 40.249224 45.965553 73.559341 0.807153 1.343247c2.005835 3.535812 2.981647 6.668047 2.921412 9.396706-0.066259 3.072-1.114353 7.228235-3.144283 12.474729l-0.897506 2.258824c-1.572141 3.830965-2.7648 5.999435-3.571952 6.505411-0.951718 0.596329-2.234729 0.355388-3.855059-0.722823-5.632-3.855059-10.396612-5.951247-14.287812-6.264471-3.650259-0.301176-10.324329 0.758965-20.022212 3.162353l-1.981741 0.499953-1.204706-4.650165 5.385035-2.541929c7.812518-3.722541 13.010824-6.390965 15.588895-8.005271 3.132235-1.957647 4.800753-3.614118 4.999529-4.963388 0.168659-1.186635-0.325271-2.788894-1.475765-4.818823l-0.536094-0.891483-33.575153-53.735906-8.083576 20.341459-1.421553 3.776753c-0.849318 2.427482-1.584188 3.830965-2.198588 4.216471a2.282918 2.282918 0 0 1-1.746824 0.379482l-0.722824-0.22287a281.449412 281.449412 0 0 1-7.348705-2.686495 261.577788 261.577788 0 0 1-13.113224-5.300705 395.812141 395.812141 0 0 0 21.769035-31.352471l3.029836-4.885082-22.594259-36.171295-20.437835 12.769883-1.644424 1.066165a39.074635 39.074635 0 0 0-5.433224 4.342964l-1.066164 1.102306-8.836518-6.409035 1.427577-0.518024c2.409412-0.927624 4.999529-2.204612 7.752282-3.830964l1.674541-1.011953 22.473788-14.046871-13.661364-21.865412-2.451577-3.897223a630.091294 630.091294 0 0 0-11.745882-17.913977z m188.63887-4.794729c0.963765-0.602353 5.348894-0.283106 13.167436 0.957741l1.505882 0.240941c8.758212 1.445647 13.564988 2.843106 14.414306 4.204424 0.849318 1.361318 0.240941 2.770824-1.813082 4.234541l-0.662589 0.439718-52.308329 32.68367 16.721318 26.768565 18.594635-11.619388 1.180612-14.938353 0.090353-0.740894c0.222871-1.385412 0.626447-2.264847 1.204705-2.632283 1.283012-0.795106 5.650071-0.445741 13.1072 1.054118l1.529977 0.313223c8.3968 1.764894 12.974682 3.258729 13.739671 4.481506 0.686682 1.090259 0.421647 2.102212-0.80113 3.029836l-0.499953 0.343341-43.9296 27.449223 19.407812 31.063341 3.294871-1.511905c13.0048-6.029553 23.973647-11.836235 32.894494-17.408 8.2944-5.180235 16.022588-10.360471 23.202635-15.540706l3.541835-2.590118 2.987671 5.234447-1.391435 1.186635c-5.409129 4.698353-8.818447 8.710024-10.233977 12.041036-1.529976 3.608094-1.903435 8.764235-1.120376 15.48047 0.084329 1.644424-0.692706 2.981647-2.325083 4.005647-2.861176 1.788988-12.119341 5.535624-27.774494 11.24593-15.661176 5.710306-29.274353 8.631718-40.839529 8.758212-11.5712 0.120471-24.4736-3.318965-38.7072-10.336377 2.385318 11.390494 2.993694 22.136471 1.825129 32.243953-1.084235 9.330447-3.873129 19.847529-8.378729 31.563294l-1.162541 2.95153-5.059765-0.813177 0.53007-3.324988c2.294965-15.402165 2.307012-29.376753 0.036142-41.923765-2.433506-13.438494-8.950965-31.527153-19.5584-54.259953l14.619105-3.650259c4.469459-1.090259 7.288471-1.746824 8.444989-1.951623 2.126306-0.385506 3.403294-0.234918 3.830964 0.445741 0.373459 0.602353 0.144565 1.566118-0.680658 2.915388l-0.39153 0.602353c-1.144471 1.656471-1.722729 3.150306-1.7408 4.48753-0.012047 1.216753 0.620424 3.909271 1.897412 8.071529l0.403576 1.289035c1.548047 4.903153 2.710588 9.197929 3.493647 12.872283 11.264 4.457412 23.371294 6.150024 36.321883 5.101929l2.78287-0.271059-38.050635-60.885835-43.52 27.190212-1.222776 0.783059c-2.349176 1.536-4.059859 2.891294-5.138071 4.065882l-0.481882 0.566212-8.047436-6.053647 1.8432-0.740895a52.766118 52.766118 0 0 0 5.577789-2.800941l1.873317-1.132423 89.7024-56.048941 0.385506-15.299765 0.072283-0.795106c0.198776-1.517929 0.734871-2.547953 1.614305-3.096094zM500.007153 7.023435a511.939765 511.939765 0 0 1 196.240565 5.662118c46.604047 10.450824 90.955294 27.021553 132.336941 49.513412l5.150117 2.843106-34.966588 22.1184C653.986635 14.516706 475.7504 17.148988 329.125647 109.857129c-145.118871 91.786541-223.683765 249.476518-221.352659 409.6l0.090353 4.854965-35.068988 22.082259c-3.391247-48.971294 0.481882-98.105224 11.3664-146.582588 14.619106-64.752941 41.188894-125.265318 78.992565-179.585506 39.050541-56.32 88.533835-103.592659 146.895811-140.601224C368.459294 42.616471 432.380988 18.215153 500.013176 7.023435zM568.777788 403.154824c0.746918-0.469835 3.517741-0.590306 8.300424-0.361412 4.782682 0.234918 9.185882 0.602353 13.203576 1.1264l2.011859 0.295153c2.752753 0.445741 4.306824 0.951718 4.656188 1.505882 0.795106 1.270965-0.566212 4.385129-4.071906 9.336471l-0.783058 1.084235 21.835294 34.936471 1.505882 2.403388c1.024 1.614306 2.090165 3.270776 3.192471 4.957364l3.421364 5.180236 4.367059 6.083764 0.319247 0.548142a3.692424 3.692424 0 0 1 0.542118 1.746823c-0.012047 0.584282-0.783059 2.1504-2.307012 4.716424a56.313976 56.313976 0 0 1-5.300706 7.427011c-2.011859 2.397365-3.493647 3.8912-4.445364 4.481506-0.813176 0.512-1.536 0.403576-2.1504-0.32527l-0.301177-0.415624-4.595953-7.348706-43.9296 27.449224 2.294965 3.674353 0.391529 0.698729c0.686682 1.379388 0.813176 2.692518 0.379483 3.939388-0.512 1.451671-2.192565 3.921318-5.035671 7.408942-2.843106 3.475576-5.150118 5.770541-6.921035 6.87887-0.8192 0.512-1.584188 0.042165-2.300989-1.403482a213.919624 213.919624 0 0 0-9.414776-17.281506l-2.198588-3.590024-27.581741-44.1344-2.728659-4.276705a297.086494 297.086494 0 0 0-8.734118-12.709647c7.565553-2.343153 14.510682-3.602071 20.823341-3.782777l2.084141-0.018071 39.634824-24.768752 2.379294-12.673506c0.331294-1.457694 0.813176-2.391341 1.457694-2.788894z m303.344941-91.256471c4.873035-0.385506 11.324235-0.2048 19.371671 0.542118l2.849129 0.295153c6.240376 0.704753 9.697882 1.596235 10.366495 2.668423 0.680659 1.090259 0.259012 2.270871-1.264942 3.541835l-0.620423 0.481883c-2.029929 1.457694-3.337035 2.843106-3.933365 4.162259-0.602353 1.325176-0.795106 3.812894-0.590306 7.469176 1.548047 23.088188 1.367341 41.291294-0.542117 54.603294 13.534871 0.445741 29.539388-1.457694 48.007529-5.704282 16.781553-3.855059 32.545129-8.914824 47.284706-15.179294l4.397176-1.909459 2.626259 3.752659-1.584188 1.096282c-10.842353 7.752282-16.5888 16.896-17.245365 27.431153-0.060235 2.313035-0.505976 3.728565-1.325176 4.240565-1.632376 1.024-12.516894 2.849129-32.653553 5.481411-20.136659 2.638306-38.026541 2.505788-53.669647-0.4096-9.390682 29.840565-31.888565 61.680941-67.505694 95.52113l-2.921412 2.746729-3.855059-2.98767 2.843106-3.367153c27.172141-32.539106 45.212612-64.692706 54.121412-96.436706-19.528282-7.306541-40.291388-20.3776-62.283294-39.213177-4.457412 18.799435-13.101176 39.363765-25.937318 61.692989l-2.066071 3.535811-4.620047-1.939576 1.493836-4.342965c5.336847-15.841882 9.107576-30.750118 11.318211-44.718682 2.409412-15.239529 3.282824-32.786071 2.620236-52.6336l3.855058-0.451765c17.438118-1.933553 26.870965-1.758871 28.304565 0.530071 0.764988 1.222776-0.150588 2.650353-2.734682 4.264659-2.590118 1.614306-4.577882 4.186353-5.981365 7.710117-1.391435 3.523765-2.963576 9.806306-4.698353 18.853647 23.443576 15.082918 44.766871 24.961506 63.969883 29.629741 1.981741-18.660894-0.481882-42.315294-7.396895-70.957176zM590.558871 452.330918l-43.9296 27.449223 13.402353 21.455812 43.935623-27.449224-13.408376-21.455811z m-18.383812-29.424942l-43.935624 27.455248 14.173365 22.678588 43.9296-27.449224-14.167341-22.684612zM415.659671 246.663529c60.675012-38.315671 130.819012-54.537035 201.041317-47.116047l3.830965 0.427671-54.109365 34.213647a277.154635 277.154635 0 0 0-131.553882 42.502024A276.612518 276.612518 0 0 0 342.016 373.946729l-1.969694 3.511718-54.073224 34.2016c22.907482-68.138165 68.065882-126.018259 129.686589-164.996518z m-157.539389 27.648l10.468894 36.827859 36.2496 12.26993-31.792188 21.359435-0.445741 38.213271-30.135718-23.672471-36.526682 11.372423 13.203577-35.936376-22.148518-31.171765 38.249412 1.385412 22.877364-30.653741z m620.194636-38.448188c2.313035-1.445647 8.463059-1.487812 18.45007-0.12047l1.801036 0.252988c11.047153 1.620329 17.046588 3.1744 17.980235 4.674259 0.536094 0.861365-0.216847 1.987765-2.258824 3.385223l-0.728847 0.469835-167.345694 104.568471-1.325176 0.861365c-2.553976 1.716706-4.475482 3.415341-5.770542 5.095906l-0.596329 0.843294-8.914823-6.083765 1.4336-0.518023c2.409412-0.927624 4.999529-2.204612 7.752282-3.830965l1.674541-1.011953 135.469177-84.654682-0.048189-18.72113 0.030118-0.885459c0.168659-1.987765 0.963765-3.433412 2.397365-4.324894z m12.812047 48.248471c12.173553-1.734776 21.202824-1.837176 27.087811-0.301177 5.878965 1.529976 10.270118 4.614024 13.161412 9.246118 2.891294 4.632094 4.469459 9.041318 4.728471 13.239718 0.252988 4.1984-0.505976 6.848753-2.276894 7.951058-1.770918 1.114353-3.367153 1.590212-4.788706 1.4336-1.421553-0.150588-4.174306-1.222776-8.264283-3.216564-13.143341-6.180141-25.720471-10.017129-37.731388-11.504941-11.083294-1.385412-23.907388-1.716706-38.454212-1.011953l-3.674352 0.198776-0.126495-4.752565 3.1744-0.849317c19.877647-5.306729 35.599059-8.782306 47.164236-10.432753z m-111.483483-15.149177c25.937318-10.661647 41.845459-11.270024 47.736471-1.8432 1.704659 2.728659 2.1504 6.854776 1.343247 12.378353-0.807153 5.523576-2.710588 9.222024-5.710306 11.095341-1.909459 1.192659-3.614118 1.644424-5.12 1.355295-1.505882-0.295153-4.029741-2.126306-7.559529-5.505506-3.529788-3.3792-7.890824-6.107859-13.065036-8.17393-4.595953-1.8432-10.131576-3.318965-16.60687-4.439341l-2.469647-0.403576-0.560188-3.626165 2.011858-0.843294zM349.762259 140.709647l32.719812 19.805365 34.83407-15.661177-8.746165 37.147106 25.678306 28.406965-38.11087 3.072-19.076518 33.141459-14.727529-35.30993-37.454306-7.812517 29.027388-24.744659-4.144188-38.044612zM569.765647 72.577506l18.311529 33.617318 38.044612 3.975529-26.226447 27.786541 7.9872 37.454306-34.593129-16.414118-33.171577 19.178918 4.903153-37.906071-28.431059-25.503623 37.659106-7.186071 15.516612-35.002729z" fill="#3396FA" p-id="5232"></path></svg>